<svg height="512pt" viewBox="-31 0 512 512" width="512pt" xmlns="http://www.w3.org/2000/svg"><path d="m225 0-225 95.097656v83.300782c0 144.300781 86.101562 274.199218 219 331.199218l6 2.402344 6-2.402344c132.898438-57 219-186.898437 219-331.199218v-83.300782zm0 377c-66.300781 0-120-53.699219-120-120s53.699219-120 120-120 120 53.699219 120 120-53.699219 120-120 120zm0 0" fill="#6aa9ff"/><path d="m450 95.097656v83.300782c0 144.300781-86.101562 274.199218-219 331.199218l-6 2.402344v-135c66.300781 0 120-53.699219 120-120s-53.699219-120-120-120v-137zm0 0" fill="#4895ff"/><path d="m225 122c-74.398438 0-135 60.597656-135 135 0 74.398438 60.601562 135 135 135s135-60.601562 135-135c0-74.402344-60.601562-135-135-135zm0 0" fill="#e0f4ff"/><path d="m360 257c0 74.398438-60.601562 135-135 135v-270c74.398438 0 135 60.597656 135 135zm0 0" fill="#bbdcff"/><path d="m295.5 237.5-70.5 70.800781-15 15-55.5-55.800781 21-21 34.5 34.199219 15-15 49.5-49.199219zm0 0" fill="#61729b"/><path d="m295.5 237.5-70.5 70.800781v-42.601562l49.5-49.199219zm0 0" fill="#47568c"/></svg>